<svg xmlns="http://www.w3.org/2000/svg" xml:space="preserve" width="2000" height="203" data-id="lg_IfZPq8bSBEhBAEuwL9" data-version="1" viewBox="0 0 2000 203"><g data-padding="20"><g transform="translate(10 3.612)scale(.96441)"><path fill="#0080ff" d="M845.341.163a90.833 90.833 0 1 0 0 181.666 90.833 90.833 0 1 0 0-181.665"/><rect width="440.693" height="170.969" x="413.705" y="-384.178" fill="none" rx="0" ry="0" transform="translate(460.16 389.8)"/><path fill="#010c80" d="M888.831 80.356h-14.28q.34 0 1.19-1.19t2.21-4q.6-1.27 2.04-4.33 1.45-3.06 3.4-7.23 1.95-4.16 4.08-8.71 2.12-4.55 4.04-8.71 1.91-4.17 3.36-7.31 1.44-3.15 2.04-4.42 1.19-2.72 1.27-3.91t-.34-1.19h14.88q-.35 0-.26 1.19t1.19 3.91q.6 1.27 1.96 4.37 1.36 3.11 3.27 7.27 1.91 4.17 3.95 8.63t3.99 8.63q1.96 4.16 3.41 7.31 1.44 3.14 2.12 4.5 1.36 2.81 2.51 4 1.14 1.19 1.74 1.19h-15.73q.86-.17 1.41-1.36t-.22-3.83q-.16-.68-.59-1.95-.42-1.28-.77-1.87-.51-1.19-1.01-1.7-.51-.51-1.32-.68t-2.25-.17h-21.76q-1.62 0-2.55.12-.94.13-1.41.64-.46.51-.89 1.7l-.68 2.04q-.34 1.02-.51 1.87-.76 2.81-.42 4t.93 1.19m7.73-18.36h17.09q2.47 0 2.72-.43.25-.42-.25-1.87-1.11-2.72-2.56-5.91-1.44-3.18-2.93-6.37-1.48-3.19-2.89-6.12-1.4-2.93-2.42-5.14h-.17q-1.78 3.74-3.65 7.77-1.88 4.04-3.53 7.57-1.66 3.53-2.68 5.74l-1.02 2.21q-.59 1.36-.38 1.95.21.6 2.67.6m52.61 18.36h-12.07q.59 0 1.15-1.19.55-1.19.55-3.91v-29.58q0-2.72-.55-3.87-.56-1.15-1.15-1.23h10.37v34.68q0 2.72.55 3.91t1.15 1.19m-6.88-47.94q-2.47 0-3.83-1.41-1.36-1.4-1.36-3.27 0-1.95 1.32-3.31t3.87-1.36q2.54 0 3.86 1.36t1.32 3.31q0 1.87-1.36 3.27-1.36 1.41-3.82 1.41m41.39 47.94h-13.09q.6 0 1.19-1.19.6-1.19.6-3.91v-40.8q0-2.72-.6-3.87-.59-1.15-1.19-1.23h15.73q-.17 0 .17 1.19t1.61 4.08q.51 1.1 1.83 3.91 1.32 2.8 3.19 6.67t3.99 8.29q2.13 4.42 4.34 8.96 2.21 4.55 4.16 8.55h.09q2.04-4.08 4.25-8.63t4.42-9.05q2.21-4.51 4.08-8.38 1.87-3.86 3.18-6.63 1.32-2.76 1.83-3.86 1.19-2.72 1.57-3.91.39-1.19.22-1.19h15.64q-.6 0-1.19 1.19-.6 1.19-.6 3.99v40.72q0 2.72.6 3.91.59 1.19 1.19 1.19h-13.01q.6 0 1.15-1.19t.55-3.91v-35.19h-.17q-1.78 3.57-3.78 7.65t-4.04 8.2-3.82 7.9q-1.79 3.79-3.19 6.76-1.4 2.98-2.17 4.68-1.19 2.63-1.23 3.82t.38 1.28h-11.9q.43 0 .43-1.15t-1.28-3.95q-.59-1.45-1.95-4.25-1.36-2.81-3.11-6.59-1.74-3.78-3.78-7.99t-4.04-8.46q-1.99-4.25-3.78-7.9h-.25v35.19q0 2.72.59 3.91.6 1.19 1.19 1.19m83.47.85q-8.5 0-13.3-2.72t-6.72-7.4q-1.91-4.67-1.91-10.54 0-5.95 2-10.62 2-4.68 6.76-7.44t13.17-2.76q8.42 0 13.18 2.76t6.75 7.44q2 4.67 2 10.62 0 5.87-1.91 10.54-1.91 4.68-6.67 7.4t-13.35 2.72m0-6.04q5.27 0 8.16-1.7t4-4.97q1.1-3.27 1.1-7.95 0-4.67-1.15-7.99-1.14-3.31-3.99-5.1-2.85-1.78-8.12-1.78-5.18 0-8.07 1.82-2.89 1.83-4.04 5.19t-1.15 7.95q0 4.5 1.11 7.77 1.1 3.28 3.99 5.02t8.16 1.74m47.18 6.04q-8.84 0-13.9-2.72t-7.1-7.4q-2.04-4.67-2.04-10.54 0-10.37 5.65-15.55 5.66-5.19 16.54-5.19 6.63 0 11.13.85 4.51.85 6.21 1.62v1.7l1.7 7.39q-1.7-1.78-6.46-3.7-4.76-1.91-11.99-1.91-3.65 0-6.93 1.23-3.27 1.24-5.27 4.47-1.99 3.23-1.99 9.18 0 5.78 2.12 8.96 2.13 3.19 5.87 4.38t8.5 1.19q6.03 0 9.98-1.87 3.96-1.87 5.32-3.65v1.7l.85 5.78q-1.62 1.36-6.34 2.72-4.71 1.36-11.85 1.36m33.84-.86h-12.07q.59 0 1.14-1.19.56-1.19.56-3.91v-48.45q0-2.72-.56-3.87-.55-1.15-1.14-1.23h10.37v33.06q0 1.87.46 2.25.47.39 3.02.39 2.64 0 4.93-1.19 2.3-1.19 4.12-3.79 1.83-2.59 2.77-6.67.68-2.8.55-3.99t-.55-1.19h13.85q-.51 0-1.66 1.19-1.14 1.19-2.67 3.99-1.96 3.57-3.66 6.21-1.7 2.63-3.91 4.5t-5.61 3.32q4 1.36 6.93 3.52 2.93 2.17 5.27 5.15 2.34 2.97 4.63 6.8 1.7 2.72 3.02 3.91t1.91 1.19h-13.77q.51-.09.38-1.45-.12-1.36-1.74-4.5-1.44-2.98-3.57-5.49-2.12-2.5-4.89-3.99-2.76-1.49-6.33-1.49-2.63 0-3.06.3-.42.3-.42 2.25v9.27q0 2.72.55 3.91t1.15 1.19m-256.11 74.93h-13.09q.59 0 1.19-1.19.59-1.19.59-3.91v-40.8q0-2.72-.59-3.87-.6-1.15-1.19-1.23h13.09q-.59 0-1.19 1.19-.59 1.19-.59 3.99v40.72q0 2.72.59 3.91.6 1.19 1.19 1.19m17.34 0h-12.07q.6 0 1.15-1.19t.55-3.91v-28.73q0-2.72-.55-3.87t-1.15-1.23q3.74 0 6.5-.56 2.77-.55 3.87-1.14v5.18l-.17 1.11.17.17q1.28-1.62 3.27-3.06 2-1.45 4.97-2.43 2.98-.97 6.98-.97 7.9 0 12.11 4.5 4.21 4.51 4.21 14.11v16.92q0 2.72.55 3.91t1.15 1.19h-12.07q.59 0 1.14-1.19t.55-3.91v-16.66q0-5.02-1.27-7.82-1.27-2.81-3.53-3.96-2.25-1.14-5.22-1.14-3.15 0-6.12 1.36-2.98 1.36-4.85 4.33-1.87 2.98-1.87 7.99v15.9q0 2.72.55 3.91.56 1.19 1.15 1.19m51.68.85q-5.86 0-8.5-2.51-2.63-2.51-2.63-8.2v-23.97h-7.65v-5.95q3.91 0 6.12-.98t3.14-3.44q.94-2.47.94-6.89h6.12v11.31h16.23q-.59.85-1.15 2.5-.55 1.66-.55 3.45h-14.53v22.69q0 3.91 1.44 4.93 1.45 1.02 3.66 1.02 2.12 0 3.95-.89t3.23-2.17q1.4-1.27 2.16-2.46v2.63l.86 4.85q-.86.85-2.64 1.82-1.78.98-4.33 1.62t-5.87.64m36.12 0q-6.72 0-11.05-1.58-4.34-1.57-6.8-4.37-2.47-2.81-3.45-6.55-.97-3.74-.97-8.16 0-9.6 5.48-15.21t16.28-5.61q6.29 0 10.15 1.7 3.87 1.7 5.87 4.5 2 2.81 2.72 6.08t.72 6.42v3.99q0-.25-2.34-.55-2.33-.3-7.86-.3h-22.35q0 6.29 3.74 9.95 3.74 3.65 11.13 3.65 6.38 0 10.5-1.57t5.48-3.1v1.7l.85 5.61q-1.87 1.1-6.59 2.25-4.71 1.15-11.51 1.15m-10.2-25.25h20.65q0-2.21-.93-4.59-.94-2.38-3.32-4.04-2.38-1.65-6.71-1.65-3.66 0-6.38 1.23t-4.21 3.19q-1.48 1.95-1.48 4.16 0 .85.51 1.28.51.42 1.87.42m44.79 24.4h-12.07q.59 0 1.15-1.19.55-1.19.55-3.91v-28.73q0-2.72-.55-3.87-.56-1.15-1.15-1.23 3.74 0 6.5-.56 2.77-.55 3.87-1.14v4.25l-.17 1.44.17.17q1.27-1.7 3.1-3.02 1.83-1.31 4.21-2.08 2.38-.76 5.44-.76 3.99 0 6.93 1.14 2.93 1.15 4.21 2.34l-1.7 7.14v2.55q-1.11-1.36-3.19-2.85-2.09-1.48-4.72-2.5t-5.61-1.02q-3.4 0-6.03 2.72-2.64 2.72-2.64 9.01v17q0 2.72.55 3.91t1.15 1.19"/><path fill="#010c80" d="M1083.051 155.277h-13.61q.6 0 .81-1.15t-.81-3.95q-.42-1.11-1.61-3.91-1.19-2.81-2.81-6.51-1.61-3.69-3.31-7.48-1.7-3.78-3.15-6.88-1.44-3.1-2.29-4.63-1.45-2.72-2.64-3.96-1.19-1.23-1.7-1.31h13.86q-.77 0-1.02 1.19-.26 1.19 1.02 4.08.68 1.44 1.87 4.37 1.19 2.94 2.68 6.72 1.48 3.78 3.06 7.69 1.57 3.91 2.84 7.31h.09q1.36-3.48 2.97-7.44 1.62-3.95 3.15-7.77 1.53-3.83 2.76-6.76t1.83-4.29q1.19-2.72.94-3.91-.26-1.19-.94-1.19h13.34q-.51 0-1.57 1.14-1.06 1.15-2.42 3.87-.77 1.45-2.21 4.42-1.44 2.98-3.19 6.67-1.74 3.7-3.4 7.36-1.66 3.65-2.89 6.67t-1.65 4.55q-.77 2.8-.6 3.95t.6 1.15m29.59-.01h-12.07q.59 0 1.14-1.19.56-1.19.56-3.91v-29.58q0-2.72-.56-3.87-.55-1.15-1.14-1.23h10.37v34.68q0 2.72.55 3.91t1.15 1.19m-6.89-47.94q-2.46 0-3.82-1.41-1.36-1.4-1.36-3.27 0-1.95 1.31-3.31 1.32-1.36 3.87-1.36t3.87 1.36 1.32 3.31q0 1.87-1.36 3.27-1.36 1.41-3.83 1.41m31.78 48.8q-6.72 0-11.05-1.58-4.33-1.57-6.8-4.37-2.46-2.81-3.44-6.55t-.98-8.16q0-9.6 5.48-15.21 5.49-5.61 16.28-5.61 6.29 0 10.16 1.7t5.86 4.5q2 2.81 2.72 6.08.73 3.27.73 6.42v3.99q0-.25-2.34-.55t-7.86-.3h-22.36q0 6.29 3.74 9.95 3.74 3.65 11.13 3.65 6.38 0 10.5-1.57 4.13-1.57 5.49-3.1v1.7l.85 5.61q-1.87 1.1-6.59 2.25t-11.52 1.15m-10.2-25.25h20.66q0-2.21-.94-4.59-.93-2.38-3.31-4.04-2.38-1.65-6.72-1.65-3.66 0-6.37 1.23-2.72 1.23-4.21 3.19-1.49 1.95-1.49 4.16 0 .85.51 1.28.51.42 1.87.42m59.84 24.4h-13.6q.6 0 .81-1.15t-.81-3.95q-.42-1.11-1.62-3.91-1.18-2.81-2.76-6.51-1.57-3.69-3.27-7.48-1.7-3.78-3.14-6.88-1.45-3.1-2.3-4.63-1.44-2.72-2.63-3.96-1.19-1.23-1.7-1.31h13.85q-.76 0-1.02 1.19-.25 1.19 1.02 4.08.68 1.44 1.87 4.37 1.19 2.94 2.68 6.72t3.01 7.69q1.54 3.91 2.81 7.31h.08q1.28-3.48 2.73-7.44 1.44-3.95 2.84-7.77 1.41-3.83 2.51-6.76 1.11-2.93 1.7-4.29 1.19-2.72.94-3.91-.26-1.19-.94-1.19h13.6q-.77 0-1.02 1.19-.26 1.19 1.02 4.08.68 1.44 1.83 4.37 1.14 2.94 2.55 6.72 1.4 3.78 2.84 7.69 1.45 3.91 2.64 7.31h.09q1.44-3.48 3.06-7.44 1.61-3.95 3.22-7.77 1.62-3.83 2.85-6.76 1.24-2.93 1.83-4.29 1.19-2.72.94-3.91-.26-1.19-.94-1.19h13.35q-.51 0-1.58 1.14-1.06 1.15-2.42 3.87-.76 1.45-2.21 4.42-1.45 2.98-3.23 6.67-1.78 3.7-3.48 7.36-1.7 3.65-2.98 6.67-1.27 3.02-1.7 4.55-.76 2.8-.59 3.95.16 1.15.59 1.15h-13.6q.6 0 .81-1.15t-.81-3.95q-.25-.77-1.27-3.49l-2.47-6.59q-1.45-3.86-2.97-8.03-1.53-4.16-2.98-7.9h-.26q-1.35 3.57-2.97 7.6-1.61 4.04-3.06 7.82-1.44 3.79-2.47 6.63-1.01 2.85-1.27 3.96-.76 2.8-.6 3.95.18 1.15.6 1.15m72.43.85q-6.71 0-11.05-1.58-4.33-1.57-6.8-4.37-2.46-2.81-3.44-6.55t-.98-8.16q0-9.6 5.48-15.21 5.49-5.61 16.28-5.61 6.29 0 10.16 1.7t5.86 4.5q2 2.81 2.72 6.08.73 3.27.73 6.42v3.99q0-.25-2.34-.55t-7.86-.3h-22.36q0 6.29 3.74 9.95 3.74 3.65 11.14 3.65 6.37 0 10.49-1.57 4.13-1.57 5.49-3.1v1.7l.85 5.61q-1.87 1.1-6.59 2.25t-11.52 1.15m-10.2-25.25h20.66q0-2.21-.94-4.59-.93-2.38-3.31-4.04-2.38-1.65-6.72-1.65-3.65 0-6.37 1.23t-4.21 3.19q-1.49 1.95-1.49 4.16 0 .85.51 1.28.51.42 1.87.42m44.78 24.4h-12.07q.6 0 1.15-1.19t.55-3.91v-28.73q0-2.72-.55-3.87t-1.15-1.23q3.74 0 6.51-.56 2.76-.55 3.86-1.14v4.25l-.17 1.44.17.17q1.28-1.7 3.11-3.02 1.83-1.31 4.21-2.08 2.38-.76 5.43-.76 4 0 6.93 1.14 2.93 1.15 4.21 2.34l-1.7 7.14v2.55q-1.11-1.36-3.19-2.85-2.08-1.48-4.72-2.5-2.63-1.02-5.6-1.02-3.41 0-6.04 2.72-2.64 2.72-2.64 9.01v17q0 2.72.56 3.91.55 1.19 1.14 1.19"/><rect width="89.558" height="27.12" x="589.272" y="-312.254" fill="none" rx="0" ry="0" transform="translate(294.23 487.97)"/><path fill="#010c80" d="M885.831 197.046q-1.06 0-1.77-.52-.7-.51-.7-1.5 0-1.05.5-1.96.5-.92 1.34-1.6t1.84-1.07q1-.38 1.98-.38t1.46.35q.48.34.48.85 0 .48-.44 1.02t-1.28.95q-.53.24-1.22.42-.68.18-1.18.18-.39 0-.39-.12 0-.1.34-.1.31 0 .97-.18t1.28-.49q.7-.39.99-.77t.29-.7q0-.28-.23-.48-.23-.19-.64-.19-.38 0-.86.22-.7.31-1.43 1.02t-1.21 1.55-.48 1.6q0 .53.3.89t.9.36q.62 0 1.44-.39.81-.4 1.65-.99t1.56-1.19 1.16-1q.14-.15.21-.15t.07.12q0 .17-.14.29-.91.84-1.98 1.75t-2.28 1.55-2.53.66"/><path fill="#010c80" d="M893.031 197.076q-.96 0-1.69-.37-.74-.37-1.07-1.38-.03-.09.06-.12.08-.02.11.1.24.53.62.74.38.22.84.22.77 0 1.36-.46.58-.45 1.05-1.15t.84-1.43.71-1.26q.53-.89 1.26-1.61t1.33-.88q-.14-.08-.36-.08-.6 0-1.32.36t-1.45.94-1.42 1.21q-.68.64-1.24 1.18-.57.54-.9.85-.2.17-.29.17-.1 0-.1-.1 0-.14.12-.26.72-.63 1.49-1.41t1.56-1.51 1.61-1.21q.81-.48 1.65-.48h.18q.09 0 .18.02.27.03.5.15.22.12.13.17-.55.24-.87.96-.31.72-.57 1.68-.27.96-.64 1.94t-1.07 1.75q.34-.12 1.06-.55t1.58-1.07q.87-.63 1.61-1.4.1-.1.19-.1.12 0 .12.12 0 .1-.09.19-.65.63-1.44 1.34-.79.7-1.72 1.33-.92.62-1.91 1.02-.98.39-2.01.39"/><path fill="#010c80" d="M900.611 197.227q-.77 0-1.17-.46-.41-.45-.41-1.27 0-.77.41-1.8l.04-.12-.43.41q-.09.09-.21.09t-.12-.09q0-.12.16-.29.63-.55 1.29-1.16.66-.62 1.11-1.17-.16.07-.36.07-.19 0-.28-.09-.17-.12-.17-.43 0-.27.25-.56.25-.28 1.04-.5.17-.05.35-.07.18-.03.35-.05.77-1.08 1.34-2 .58-.93.92-1.24.14-.17.51-.29t.79-.19.66-.07q.8 0 .8.14 0 .1-.36.46-.6.57-1.41 1.43-.8.85-1.64 1.83.69.1 1.28.36.59.27.85.67.1.12.1.29 0 .19-.12.19-.1 0-.22-.12-.5-.5-1.68-.5-.24 0-.49.02-.25.03-.51.08-.82 1.05-1.49 2.11-.67 1.05-.96 1.97-.15.43-.15.79t.17.59q.17.22.51.22.21 0 .52-.12.46-.16 1.06-.56t1.21-.9 1.15-.98.9-.82.41-.38q.07-.08.12-.08.1 0 .1.15 0 .17-.15.31-.24.24-.73.72t-1.13 1.07q-.63.59-1.35 1.11-.72.53-1.45.88-.74.35-1.41.35m6.24-.42q-.31 0-.48-.17-.26-.21-.26-.6 0-.55.43-1.01.5-.57 1.15-.57.27 0 .48.14.27.22.27.6 0 .53-.44 1.01-.52.6-1.15.6m23.35.75q-.14 0-.07-.19.15-.48-.62-.83-.77-.34-2.05-.52-1.29-.18-2.75-.18-.96 0-1.9.07-.93.07-1.77.26-.58.12-1.22.35-.63.23-1.22.4-.59.16-1.02.16-.29 0-.46-.09-.16-.1-.16-.43 0-.34.3-.78.3-.45 1.12-.89.83-.45 2.39-.73.46-.1.67-.15.22-.05.63-.24l2.84-1.25q1.43-.62 2.77-1.36 1.04-.58 1.47-1.22.43-.63.43-1.23 0-.77-.56-1.32-.57-.55-1.41-.67-.31-.05-.62-.08-.31-.02-.63-.02-1.41 0-2.54.37t-1.79.88q-.66.5-.66.86 0 .41.82.41.57 0 1.53-.24.94-.24 1.64-.58.69-.33 1.15-.79.07-.07.09-.08.03-.01.05.08.03.07.03.19 0 .36-.34.69-.34.32-.82.61t-.92.47-.68.25q-.7.17-1.28.25-.57.09-1 .09-.82 0-1.2-.23-.39-.23-.39-.59 0-.53.65-1.13.48-.43 1.3-.85.81-.42 1.84-.77 1.04-.35 2.14-.55t2.14-.2q1.2 0 2.19.33 1 .34 1.45 1.18.27.45.27.96 0 .72-.57 1.52-.56.81-1.76 1.57-1.32.84-3.07 1.48t-3.36 1.19q1.15.02 2.4.19t2.31.53q1.07.36 1.73.93.66.58.66 1.4v.14q0 .07-.02.17-.03.21-.15.21m5.62-.28q-1.27 0-2.04-.69-.77-.68-.77-1.79 0-1.2.55-2.47.56-1.27 1.52-2.45.96-1.17 2.16-2.1 1.2-.92 2.49-1.47 1.3-.55 2.55-.55 1.46 0 2.46.72.99.72.99 2.35 0 1.03-.59 2.19-.58 1.17-1.59 2.27-1.01 1.11-2.28 2.01t-2.68 1.44q-1.4.54-2.77.54m.02-.6q.92 0 1.94-.4t2-1.09q.98-.7 1.78-1.61.79-.91 1.27-1.93t.48-2.05q0-.92-.65-1.42t-1.8-.5q-.96 0-1.98.42t-1.97 1.15-1.69 1.64-1.18 1.91q-.43 1-.43 1.96 0 .86.59 1.39t1.64.53m22.19.88q-.14 0-.07-.19.14-.48-.63-.83-.76-.34-2.05-.52-1.28-.18-2.75-.18-.96 0-1.89.07-.94.07-1.78.26-.57.12-1.21.35t-1.22.4q-.59.16-1.02.16-.29 0-.46-.09-.17-.1-.17-.43 0-.34.3-.78.3-.45 1.13-.89.83-.45 2.39-.73l.67-.15q.22-.05.62-.24 1.42-.62 2.85-1.25 1.43-.62 2.77-1.36 1.03-.58 1.46-1.22.44-.63.44-1.23 0-.77-.57-1.32-.56-.55-1.4-.67-.31-.05-.63-.08-.31-.02-.62-.02-1.42 0-2.54.37-1.13.37-1.79.88-.66.5-.66.86 0 .41.81.41.58 0 1.54-.24.94-.24 1.63-.58.7-.33 1.15-.79.08-.07.1-.08t.05.08q.02.07.02.19 0 .36-.33.69-.34.32-.82.61t-.92.47q-.45.18-.69.25-.69.17-1.27.25-.58.09-1.01.09-.81 0-1.2-.23-.38-.23-.38-.59 0-.53.65-1.13.48-.43 1.29-.85.82-.42 1.85-.77t2.14-.55q1.1-.2 2.13-.2 1.2 0 2.2.33.99.34 1.45 1.18.26.45.26.96 0 .72-.56 1.52-.56.81-1.76 1.57-1.32.84-3.08 1.48-1.75.64-3.36 1.19 1.16.02 2.4.19 1.25.17 2.32.53t1.73.93q.66.58.66 1.4v.14q0 .07-.03.17-.02.21-.14.21m8.74-.34q-.68 0-1.18-.28-.5-.27-.74-.8-.2-.46-.2-.96 0-.55.18-1.14t.45-1.19q-.34.02-.69.07l-.68.1q-.72.12-1.32.32-.6.21-1.08.21-.62 0-.7-.24-.04-.05-.04-.1 0-.24.26-.5.36-.36.77-.66t.81-.62q.72-.52 1.72-1.3t2.1-1.62 2.17-1.58q1.07-.73 1.98-1.18.91-.46 1.51-.46.34 0 .48.12.08.05.12.17.05.12-.14.09-.55-.04-1.18.48-.62.53-1.26 1.44-.63.92-1.21 2.01-.57 1.09-1.05 2.15 1.41.09 2.42.51t1.01 1.26q0 .07-.01.15-.02.07-.04.16-.02.17-.14.16t-.08-.13q.15-.36-.32-.6t-1.33-.37q-.87-.14-1.95-.14-.31.82-.54 1.48-.22.66-.27 1.02-.03.12-.04.23t-.01.23q0 .43.17.78.17.34.55.54.1.02.02.08-.07.06-.12.08-.09.03-.2.03Zm-4.16-5.07q.63-.16 1.47-.27t1.73-.16q.28-.53.56-.98.28-.46.49-.82.29-.48.57-.95.27-.46.61-.9-.24.17-.85.63-.62.45-1.41 1.05t-1.62 1.24-1.55 1.16"/></g><path fill="transparent" stroke="transparent" d="M727.591 0h562v203h-562z"/></g></svg>